<?xml version="1.0" standalone="no"?>
<!DOCTYPE svg PUBLIC "-//W3C//DTD SVG 20010904//EN"
 "http://www.w3.org/TR/2001/REC-SVG-20010904/DTD/svg10.dtd">
<svg version="1.0" xmlns="http://www.w3.org/2000/svg"
 width="260.000000pt" height="260.000000pt" viewBox="0 0 260.000000 260.000000"
 preserveAspectRatio="xMidYMid meet">
<metadata>
Created by potrace 1.14, written by Peter Selinger 2001-2017
</metadata>
<g transform="translate(0.000000,260.000000) scale(0.100000,-0.100000)"
fill="#000000" stroke="none">
<path d="M1055 2584 c-33 -8 -69 -15 -80 -18 -115 -24 -322 -124 -442 -213
-350 -260 -538 -647 -528 -1083 4 -148 5 -156 31 -270 20 -81 19 -81 28 -105
87 -231 170 -367 318 -516 187 -188 469 -333 713 -367 64 -9 356 -9 415 0 376
58 738 315 928 660 63 114 125 285 137 382 3 17 9 54 14 81 9 50 8 301 -3 362
-60 365 -258 678 -561 889 -115 80 -310 162 -456 193 -114 23 -416 26 -514 5z"/>
</g>
</svg>
